# xmcd
#
# Track frame offsets:
#	150
#	16982
#	30855
#	48297
#	67151
#	80651
#	97386
#	113754
#	131678
#	146399
#	164046
#
# Disc length: 2412 seconds
#
# Revision: 1
# Processed by: cddbd v1.5.2PL0 Copyright (c) Steve Scherf et al.
# Submitted via: audiograbber 1.83.01
#
DISCID=97096a0b
DTITLE=Nicole Bernegger - Small Town
DYEAR=1900
DGENRE=Swissmusic2015
TTITLE0=Before The Clock Strikes Twelve
TTITLE1=Don't Stay Away
TTITLE2=Release Me
TTITLE3=Never Let You Go
TTITLE4=Danger
TTITLE5=Why
TTITLE6=Can You Hear Me
TTITLE7=Homesick
TTITLE8=Small Town In A Big City
TTITLE9=Just Breathe
TTITLE10=Farewell My Love
EXTD=
EXTT0=
EXTT1=
EXTT2=
EXTT3=
EXTT4=
EXTT5=
EXTT6=
EXTT7=
EXTT8=
EXTT9=
EXTT10=
PLAYORDER=
